<?xml version="1.0" encoding="UTF-8"?>
<svg height="797" width="343" xmlns="http://www.w3.org/2000/svg"><g stroke-width="2" stroke="black" stroke-linecap="round" font-family="Verdana" font-size="10"><rect x="125" width="50" height="768" style="fill:rgb(230,230,230); stroke-width:0"></rect><rect x="25" width="50" height="768" style="fill:rgb(230,230,230); stroke-width:0"></rect><line x1="10" y1="774" x2="175" y2="774"></line><line x1="175" y1="774" x2="175" y2="780"></line><text x="170" y="791" stroke-width="0">0</text><line x1="165" y1="774" x2="165" y2="777"></line><line x1="155" y1="774" x2="155" y2="777"></line><line x1="145" y1="774" x2="145" y2="777"></line><line x1="135" y1="774" x2="135" y2="777"></line><line x1="125" y1="774" x2="125" y2="780"></line><text x="120" y="791" stroke-width="0">5</text><line x1="115" y1="774" x2="115" y2="777"></line><line x1="105" y1="774" x2="105" y2="777"></line><line x1="95" y1="774" x2="95" y2="777"></line><line x1="85" y1="774" x2="85" y2="777"></line><line x1="75" y1="774" x2="75" y2="780"></line><text x="70" y="791" stroke-width="0">10</text><line x1="65" y1="774" x2="65" y2="777"></line><line x1="55" y1="774" x2="55" y2="777"></line><line x1="45" y1="774" x2="45" y2="777"></line><line x1="35" y1="774" x2="35" y2="777"></line><line x1="25" y1="774" x2="25" y2="780"></line><text x="20" y="791" stroke-width="0">15</text><line x1="15" y1="774" x2="15" y2="777"></line><line x1="5" y1="41" x2="10" y2="41"></line><line x1="10" y1="5" x2="10" y2="78"></line><line x1="10" y1="5" x2="175" y2="5"></line><line x1="10" y1="78" x2="52" y2="78"></line><line x1="52" y1="23" x2="52" y2="134"></line><line x1="52" y1="23" x2="114" y2="23"></line><line x1="114" y1="17" x2="114" y2="29"></line><line x1="114" y1="17" x2="175" y2="17"></line><line x1="114" y1="29" x2="175" y2="29"></line><line x1="52" y1="134" x2="56" y2="134"></line><line x1="56" y1="61" x2="56" y2="207"></line><line x1="56" y1="61" x2="112" y2="61"></line><line x1="112" y1="47" x2="112" y2="76"></line><line x1="112" y1="47" x2="144" y2="47"></line><line x1="144" y1="41" x2="144" y2="53"></line><line x1="144" y1="41" x2="175" y2="41"></line><line x1="144" y1="53" x2="175" y2="53"></line><line x1="112" y1="76" x2="142" y2="76"></line><line x1="142" y1="65" x2="142" y2="87"></line><line x1="142" y1="65" x2="175" y2="65"></line><line x1="142" y1="87" x2="158" y2="87"></line><line x1="158" y1="77" x2="158" y2="98"></line><line x1="158" y1="77" x2="175" y2="77"></line><line x1="158" y1="98" x2="167" y2="98"></line><line x1="167" y1="89" x2="167" y2="107"></line><line x1="167" y1="89" x2="175" y2="89"></line><line x1="167" y1="107" x2="171" y2="107"></line><line x1="171" y1="101" x2="171" y2="113"></line><line x1="171" y1="101" x2="175" y2="101"></line><line x1="171" y1="113" x2="175" y2="113"></line><line x1="56" y1="207" x2="67" y2="207"></line><line x1="67" y1="135" x2="67" y2="279"></line><line x1="67" y1="135" x2="120" y2="135"></line><line x1="120" y1="125" x2="120" y2="146"></line><line x1="120" y1="125" x2="175" y2="125"></line><line x1="120" y1="146" x2="148" y2="146"></line><line x1="148" y1="137" x2="148" y2="155"></line><line x1="148" y1="137" x2="175" y2="137"></line><line x1="148" y1="155" x2="162" y2="155"></line><line x1="162" y1="149" x2="162" y2="161"></line><line x1="162" y1="149" x2="175" y2="149"></line><line x1="162" y1="161" x2="175" y2="161"></line><line x1="67" y1="279" x2="69" y2="279"></line><line x1="69" y1="179" x2="69" y2="380"></line><line x1="69" y1="179" x2="121" y2="179"></line><line x1="121" y1="173" x2="121" y2="185"></line><line x1="121" y1="173" x2="175" y2="173"></line><line x1="121" y1="185" x2="175" y2="185"></line><line x1="69" y1="380" x2="70" y2="380"></line><line x1="70" y1="283" x2="70" y2="478"></line><line x1="70" y1="283" x2="106" y2="283"></line><line x1="106" y1="225" x2="106" y2="342"></line><line x1="106" y1="225" x2="137" y2="225"></line><line x1="137" y1="206" x2="137" y2="244"></line><line x1="137" y1="206" x2="156" y2="206"></line><line x1="156" y1="197" x2="156" y2="215"></line><line x1="156" y1="197" x2="175" y2="197"></line><line x1="156" y1="215" x2="166" y2="215"></line><line x1="166" y1="209" x2="166" y2="221"></line><line x1="166" y1="209" x2="175" y2="209"></line><line x1="166" y1="221" x2="175" y2="221"></line><line x1="137" y1="244" x2="154" y2="244"></line><line x1="154" y1="233" x2="154" y2="255"></line><line x1="154" y1="233" x2="175" y2="233"></line><line x1="154" y1="255" x2="164" y2="255"></line><line x1="164" y1="245" x2="164" y2="266"></line><line x1="164" y1="245" x2="175" y2="245"></line><line x1="164" y1="266" x2="169" y2="266"></line><line x1="169" y1="257" x2="169" y2="275"></line><line x1="169" y1="257" x2="175" y2="257"></line><line x1="169" y1="275" x2="172" y2="275"></line><line x1="172" y1="269" x2="172" y2="281"></line><line x1="172" y1="269" x2="175" y2="269"></line><line x1="172" y1="281" x2="175" y2="281"></line><line x1="106" y1="342" x2="134" y2="342"></line><line x1="134" y1="312" x2="134" y2="373"></line><line x1="134" y1="312" x2="154" y2="312"></line><line x1="154" y1="299" x2="154" y2="326"></line><line x1="154" y1="299" x2="165" y2="299"></line><line x1="165" y1="293" x2="165" y2="305"></line><line x1="165" y1="293" x2="175" y2="293"></line><line x1="165" y1="305" x2="175" y2="305"></line><line x1="154" y1="326" x2="164" y2="326"></line><line x1="164" y1="317" x2="164" y2="335"></line><line x1="164" y1="317" x2="175" y2="317"></line><line x1="164" y1="335" x2="170" y2="335"></line><line x1="170" y1="329" x2="170" y2="341"></line><line x1="170" y1="329" x2="175" y2="329"></line><line x1="170" y1="341" x2="175" y2="341"></line><line x1="134" y1="373" x2="152" y2="373"></line><line x1="152" y1="359" x2="152" y2="388"></line><line x1="152" y1="359" x2="164" y2="359"></line><line x1="164" y1="353" x2="164" y2="365"></line><line x1="164" y1="353" x2="175" y2="353"></line><line x1="164" y1="365" x2="175" y2="365"></line><line x1="152" y1="388" x2="163" y2="388"></line><line x1="163" y1="377" x2="163" y2="399"></line><line x1="163" y1="377" x2="175" y2="377"></line><line x1="163" y1="399" x2="169" y2="399"></line><line x1="169" y1="389" x2="169" y2="410"></line><line x1="169" y1="389" x2="175" y2="389"></line><line x1="169" y1="410" x2="172" y2="410"></line><line x1="172" y1="401" x2="172" y2="419"></line><line x1="172" y1="401" x2="175" y2="401"></line><line x1="172" y1="419" x2="174" y2="419"></line><line x1="174" y1="413" x2="174" y2="425"></line><line x1="174" y1="413" x2="175" y2="413"></line><line x1="174" y1="425" x2="175" y2="425"></line><line x1="70" y1="478" x2="98" y2="478"></line><line x1="98" y1="455" x2="98" y2="501"></line><line x1="98" y1="455" x2="135" y2="455"></line><line x1="135" y1="443" x2="135" y2="467"></line><line x1="135" y1="443" x2="155" y2="443"></line><line x1="155" y1="437" x2="155" y2="449"></line><line x1="155" y1="437" x2="175" y2="437"></line><line x1="155" y1="449" x2="175" y2="449"></line><line x1="135" y1="467" x2="155" y2="467"></line><line x1="155" y1="461" x2="155" y2="473"></line><line x1="155" y1="461" x2="175" y2="461"></line><line x1="155" y1="473" x2="175" y2="473"></line><line x1="98" y1="501" x2="131" y2="501"></line><line x1="131" y1="485" x2="131" y2="518"></line><line x1="131" y1="485" x2="175" y2="485"></line><line x1="131" y1="518" x2="143" y2="518"></line><line x1="143" y1="497" x2="143" y2="540"></line><line x1="143" y1="497" x2="175" y2="497"></line><line x1="143" y1="540" x2="152" y2="540"></line><line x1="152" y1="509" x2="152" y2="572"></line><line x1="152" y1="509" x2="175" y2="509"></line><line x1="152" y1="572" x2="158" y2="572"></line><line x1="158" y1="539" x2="158" y2="606"></line><line x1="158" y1="539" x2="166" y2="539"></line><line x1="166" y1="527" x2="166" y2="551"></line><line x1="166" y1="527" x2="171" y2="527"></line><line x1="171" y1="521" x2="171" y2="533"></line><line x1="171" y1="521" x2="175" y2="521"></line><line x1="171" y1="533" x2="175" y2="533"></line><line x1="166" y1="551" x2="171" y2="551"></line><line x1="171" y1="545" x2="171" y2="557"></line><line x1="171" y1="545" x2="175" y2="545"></line><line x1="171" y1="557" x2="175" y2="557"></line><line x1="158" y1="606" x2="162" y2="606"></line><line x1="162" y1="575" x2="162" y2="638"></line><line x1="162" y1="575" x2="169" y2="575"></line><line x1="169" y1="569" x2="169" y2="581"></line><line x1="169" y1="569" x2="175" y2="569"></line><line x1="169" y1="581" x2="175" y2="581"></line><line x1="162" y1="638" x2="167" y2="638"></line><line x1="167" y1="604" x2="167" y2="673"></line><line x1="167" y1="604" x2="171" y2="604"></line><line x1="171" y1="593" x2="171" y2="615"></line><line x1="171" y1="593" x2="175" y2="593"></line><line x1="171" y1="615" x2="173" y2="615"></line><line x1="173" y1="605" x2="173" y2="626"></line><line x1="173" y1="605" x2="175" y2="605"></line><line x1="173" y1="626" x2="174" y2="626"></line><line x1="174" y1="617" x2="174" y2="635"></line><line x1="174" y1="617" x2="175" y2="617"></line><line x1="174" y1="635" x2="175" y2="635"></line><line x1="175" y1="629" x2="175" y2="641"></line><line x1="175" y1="629" x2="175" y2="629"></line><line x1="175" y1="641" x2="175" y2="641"></line><line x1="167" y1="673" x2="171" y2="673"></line><line x1="171" y1="653" x2="171" y2="693"></line><line x1="171" y1="653" x2="175" y2="653"></line><line x1="171" y1="693" x2="173" y2="693"></line><line x1="173" y1="671" x2="173" y2="716"></line><line x1="173" y1="671" x2="174" y2="671"></line><line x1="174" y1="665" x2="174" y2="677"></line><line x1="174" y1="665" x2="175" y2="665"></line><line x1="174" y1="677" x2="175" y2="677"></line><line x1="173" y1="716" x2="174" y2="716"></line><line x1="174" y1="698" x2="174" y2="735"></line><line x1="174" y1="698" x2="175" y2="698"></line><line x1="175" y1="689" x2="175" y2="707"></line><line x1="175" y1="689" x2="175" y2="689"></line><line x1="175" y1="707" x2="175" y2="707"></line><line x1="175" y1="701" x2="175" y2="713"></line><line x1="175" y1="701" x2="175" y2="701"></line><line x1="175" y1="713" x2="175" y2="713"></line><line x1="174" y1="735" x2="174" y2="735"></line><line x1="174" y1="725" x2="174" y2="746"></line><line x1="174" y1="725" x2="175" y2="725"></line><line x1="174" y1="746" x2="175" y2="746"></line><line x1="175" y1="737" x2="175" y2="755"></line><line x1="175" y1="737" x2="175" y2="737"></line><line x1="175" y1="755" x2="175" y2="755"></line><line x1="175" y1="749" x2="175" y2="761"></line><line x1="175" y1="749" x2="175" y2="749"></line><line x1="175" y1="761" x2="175" y2="761"></line><circle cx="10" cy="41" r="7" fill="white" stroke="black" stroke-width="1"></circle><text x="5" y="43" stroke-width="0" font-size="6">0</text><text x="185" y="10" stroke-width="0" font-style="italic">Rhododendron maddenii</text><circle cx="175" cy="5" r="7" fill="white" stroke="black" stroke-width="1"></circle><text x="170" y="7" stroke-width="0" font-size="6">1</text><circle cx="52" cy="78" r="7" fill="white" stroke="black" stroke-width="1"></circle><text x="47" y="80" stroke-width="0" font-size="6">2</text><circle cx="114" cy="23" r="7" fill="white" stroke="black" stroke-width="1"></circle><text x="109" y="25" stroke-width="0" font-size="6">3</text><text x="185" y="22" stroke-width="0" font-style="italic">Rhododendron santapaui</text><circle cx="175" cy="17" r="7" fill="white" stroke="black" stroke-width="1"></circle><text x="170" y="19" stroke-width="0" font-size="6">4</text><text x="185" y="34" stroke-width="0" font-style="italic">Rhododendron vaccinioides</text><circle cx="175" cy="29" r="7" fill="white" stroke="black" stroke-width="1"></circle><text x="170" y="31" stroke-width="0" font-size="6">5</text><circle cx="56" cy="134" r="7" fill="white" stroke="black" stroke-width="1"></circle><text x="51" y="136" stroke-width="0" font-size="6">6</text><circle cx="112" cy="61" r="7" fill="white" stroke="black" stroke-width="1"></circle><text x="107" y="63" stroke-width="0" font-size="6">7</text><circle cx="144" cy="47" r="7" fill="white" stroke="black" stroke-width="1"></circle><text x="139" y="49" stroke-width="0" font-size="6">8</text><text x="185" y="46" stroke-width="0" font-style="italic">Rhododendron euonumifolium</text><circle cx="175" cy="41" r="7" fill="white" stroke="black" stroke-width="1"></circle><text x="170" y="43" stroke-width="0" font-size="6">9</text><text x="185" y="58" stroke-width="0" font-style="italic">Rhododendron kawakamii</text><circle cx="175" cy="53" r="7" fill="white" stroke="black" stroke-width="1"></circle><text x="170" y="55" stroke-width="0" font-size="6">10</text><circle cx="142" cy="76" r="7" fill="white" stroke="black" stroke-width="1"></circle><text x="137" y="78" stroke-width="0" font-size="6">11</text><text x="185" y="70" stroke-width="0" font-style="italic">Rhododendron retusum</text><circle cx="175" cy="65" r="7" fill="white" stroke="black" stroke-width="1"></circle><text x="170" y="67" stroke-width="0" font-size="6">12</text><circle cx="158" cy="87" r="7" fill="white" stroke="black" stroke-width="1"></circle><text x="153" y="89" stroke-width="0" font-size="6">13</text><text x="185" y="82" stroke-width="0" font-style="italic">Rhododendron quadrasianum</text><circle cx="175" cy="77" r="7" fill="white" stroke="black" stroke-width="1"></circle><text x="170" y="79" stroke-width="0" font-size="6">14</text><circle cx="167" cy="98" r="7" fill="white" stroke="black" stroke-width="1"></circle><text x="162" y="100" stroke-width="0" font-size="6">15</text><text x="185" y="94" stroke-width="0" font-style="italic">Rhododendron meliphagidum</text><circle cx="175" cy="89" r="7" fill="white" stroke="black" stroke-width="1"></circle><text x="170" y="91" stroke-width="0" font-size="6">16</text><circle cx="171" cy="107" r="7" fill="white" stroke="black" stroke-width="1"></circle><text x="166" y="109" stroke-width="0" font-size="6">17</text><text x="185" y="106" stroke-width="0" font-style="italic">Rhododendron ericoides</text><circle cx="175" cy="101" r="7" fill="white" stroke="black" stroke-width="1"></circle><text x="170" y="103" stroke-width="0" font-size="6">18</text><text x="185" y="118" stroke-width="0" font-style="italic">Rhododendron nanophyton</text><circle cx="175" cy="113" r="7" fill="white" stroke="black" stroke-width="1"></circle><text x="170" y="115" stroke-width="0" font-size="6">19</text><circle cx="67" cy="207" r="7" fill="white" stroke="black" stroke-width="1"></circle><text x="62" y="209" stroke-width="0" font-size="6">20</text><circle cx="120" cy="135" r="7" fill="white" stroke="black" stroke-width="1"></circle><text x="115" y="137" stroke-width="0" font-size="6">21</text><text x="185" y="130" stroke-width="0" font-style="italic">Rhododendron citrinum</text><circle cx="175" cy="125" r="7" fill="white" stroke="black" stroke-width="1"></circle><text x="170" y="127" stroke-width="0" font-size="6">22</text><circle cx="148" cy="146" r="7" fill="white" stroke="black" stroke-width="1"></circle><text x="143" y="148" stroke-width="0" font-size="6">23</text><text x="185" y="142" stroke-width="0" font-style="italic">Rhododendron album</text><circle cx="175" cy="137" r="7" fill="white" stroke="black" stroke-width="1"></circle><text x="170" y="139" stroke-width="0" font-size="6">24</text><circle cx="162" cy="155" r="7" fill="white" stroke="black" stroke-width="1"></circle><text x="157" y="157" stroke-width="0" font-size="6">25</text><text x="185" y="154" stroke-width="0" font-style="italic">Rhododendron aequabile</text><circle cx="175" cy="149" r="7" fill="white" stroke="black" stroke-width="1"></circle><text x="170" y="151" stroke-width="0" font-size="6">26</text><text x="185" y="166" stroke-width="0" font-style="italic">Rhododendron sumatranum</text><circle cx="175" cy="161" r="7" fill="white" stroke="black" stroke-width="1"></circle><text x="170" y="163" stroke-width="0" font-size="6">27</text><circle cx="69" cy="279" r="7" fill="white" stroke="black" stroke-width="1"></circle><text x="64" y="281" stroke-width="0" font-size="6">28</text><circle cx="121" cy="179" r="7" fill="white" stroke="black" stroke-width="1"></circle><text x="116" y="181" stroke-width="0" font-size="6">29</text><text x="185" y="178" stroke-width="0" font-style="italic">Rhododendron acuminatum</text><circle cx="175" cy="173" r="7" fill="white" stroke="black" stroke-width="1"></circle><text x="170" y="175" stroke-width="0" font-size="6">30</text><text x="185" y="190" stroke-width="0" font-style="italic">Rhododendron malayanum</text><circle cx="175" cy="185" r="7" fill="white" stroke="black" stroke-width="1"></circle><text x="170" y="187" stroke-width="0" font-size="6">31</text><circle cx="70" cy="380" r="7" fill="white" stroke="black" stroke-width="1"></circle><text x="65" y="382" stroke-width="0" font-size="6">32</text><circle cx="106" cy="283" r="7" fill="white" stroke="black" stroke-width="1"></circle><text x="101" y="285" stroke-width="0" font-size="6">33</text><circle cx="137" cy="225" r="7" fill="white" stroke="black" stroke-width="1"></circle><text x="132" y="227" stroke-width="0" font-size="6">34</text><circle cx="156" cy="206" r="7" fill="white" stroke="black" stroke-width="1"></circle><text x="151" y="208" stroke-width="0" font-size="6">35</text><text x="185" y="202" stroke-width="0" font-style="italic">Rhododendron rarilepidotum</text><circle cx="175" cy="197" r="7" fill="white" stroke="black" stroke-width="1"></circle><text x="170" y="199" stroke-width="0" font-size="6">36</text><circle cx="166" cy="215" r="7" fill="white" stroke="black" stroke-width="1"></circle><text x="161" y="217" stroke-width="0" font-size="6">37</text><text x="185" y="214" stroke-width="0" font-style="italic">Rhododendron javanicum</text><circle cx="175" cy="209" r="7" fill="white" stroke="black" stroke-width="1"></circle><text x="170" y="211" stroke-width="0" font-size="6">38</text><text x="185" y="226" stroke-width="0" font-style="italic">Rhododendron robinsonii</text><circle cx="175" cy="221" r="7" fill="white" stroke="black" stroke-width="1"></circle><text x="170" y="223" stroke-width="0" font-size="6">39</text><circle cx="154" cy="244" r="7" fill="white" stroke="black" stroke-width="1"></circle><text x="149" y="246" stroke-width="0" font-size="6">40</text><text x="185" y="238" stroke-width="0" font-style="italic">Rhododendron burttii</text><circle cx="175" cy="233" r="7" fill="white" stroke="black" stroke-width="1"></circle><text x="170" y="235" stroke-width="0" font-size="6">41</text><circle cx="164" cy="255" r="7" fill="white" stroke="black" stroke-width="1"></circle><text x="159" y="257" stroke-width="0" font-size="6">42</text><text x="185" y="250" stroke-width="0" font-style="italic">Rhododendron sarcodes</text><circle cx="175" cy="245" r="7" fill="white" stroke="black" stroke-width="1"></circle><text x="170" y="247" stroke-width="0" font-size="6">43</text><circle cx="169" cy="266" r="7" fill="white" stroke="black" stroke-width="1"></circle><text x="164" y="268" stroke-width="0" font-size="6">44</text><text x="185" y="262" stroke-width="0" font-style="italic">Rhododendron alborugosum</text><circle cx="175" cy="257" r="7" fill="white" stroke="black" stroke-width="1"></circle><text x="170" y="259" stroke-width="0" font-size="6">45</text><circle cx="172" cy="275" r="7" fill="white" stroke="black" stroke-width="1"></circle><text x="167" y="277" stroke-width="0" font-size="6">46</text><text x="185" y="274" stroke-width="0" font-style="italic">Rhododendron edanoi</text><circle cx="175" cy="269" r="7" fill="white" stroke="black" stroke-width="1"></circle><text x="170" y="271" stroke-width="0" font-size="6">47</text><text x="185" y="286" stroke-width="0" font-style="italic">Rhododendron jasminiflorum</text><circle cx="175" cy="281" r="7" fill="white" stroke="black" stroke-width="1"></circle><text x="170" y="283" stroke-width="0" font-size="6">48</text><circle cx="134" cy="342" r="7" fill="white" stroke="black" stroke-width="1"></circle><text x="129" y="344" stroke-width="0" font-size="6">49</text><circle cx="154" cy="312" r="7" fill="white" stroke="black" stroke-width="1"></circle><text x="149" y="314" stroke-width="0" font-size="6">50</text><circle cx="165" cy="299" r="7" fill="white" stroke="black" stroke-width="1"></circle><text x="160" y="301" stroke-width="0" font-size="6">51</text><text x="185" y="298" stroke-width="0" font-style="italic">Rhododendron intranervatum</text><circle cx="175" cy="293" r="7" fill="white" stroke="black" stroke-width="1"></circle><text x="170" y="295" stroke-width="0" font-size="6">52</text><text x="185" y="310" stroke-width="0" font-style="italic">Rhododendron polyanthemum</text><circle cx="175" cy="305" r="7" fill="white" stroke="black" stroke-width="1"></circle><text x="170" y="307" stroke-width="0" font-size="6">53</text><circle cx="164" cy="326" r="7" fill="white" stroke="black" stroke-width="1"></circle><text x="159" y="328" stroke-width="0" font-size="6">54</text><text x="185" y="322" stroke-width="0" font-style="italic">Rhododendron taxifolium</text><circle cx="175" cy="317" r="7" fill="white" stroke="black" stroke-width="1"></circle><text x="170" y="319" stroke-width="0" font-size="6">55</text><circle cx="170" cy="335" r="7" fill="white" stroke="black" stroke-width="1"></circle><text x="165" y="337" stroke-width="0" font-size="6">56</text><text x="185" y="334" stroke-width="0" font-style="italic">Rhododendron radians</text><circle cx="175" cy="329" r="7" fill="white" stroke="black" stroke-width="1"></circle><text x="170" y="331" stroke-width="0" font-size="6">57</text><text x="185" y="346" stroke-width="0" font-style="italic">Rhododendron ruttenii</text><circle cx="175" cy="341" r="7" fill="white" stroke="black" stroke-width="1"></circle><text x="170" y="343" stroke-width="0" font-size="6">58</text><circle cx="152" cy="373" r="7" fill="white" stroke="black" stroke-width="1"></circle><text x="147" y="375" stroke-width="0" font-size="6">59</text><circle cx="164" cy="359" r="7" fill="white" stroke="black" stroke-width="1"></circle><text x="159" y="361" stroke-width="0" font-size="6">60</text><text x="185" y="358" stroke-width="0" font-style="italic">Rhododendron lagunculicarpum</text><circle cx="175" cy="353" r="7" fill="white" stroke="black" stroke-width="1"></circle><text x="170" y="355" stroke-width="0" font-size="6">61</text><text x="185" y="370" stroke-width="0" font-style="italic">Rhododendron zollingeri</text><circle cx="175" cy="365" r="7" fill="white" stroke="black" stroke-width="1"></circle><text x="170" y="367" stroke-width="0" font-size="6">62</text><circle cx="163" cy="388" r="7" fill="white" stroke="black" stroke-width="1"></circle><text x="158" y="390" stroke-width="0" font-size="6">63</text><text x="185" y="382" stroke-width="0" font-style="italic">Rhododendron williamsii</text><circle cx="175" cy="377" r="7" fill="white" stroke="black" stroke-width="1"></circle><text x="170" y="379" stroke-width="0" font-size="6">64</text><circle cx="169" cy="399" r="7" fill="white" stroke="black" stroke-width="1"></circle><text x="164" y="401" stroke-width="0" font-size="6">65</text><text x="185" y="394" stroke-width="0" font-style="italic">Rhododendron alternans</text><circle cx="175" cy="389" r="7" fill="white" stroke="black" stroke-width="1"></circle><text x="170" y="391" stroke-width="0" font-size="6">66</text><circle cx="172" cy="410" r="7" fill="white" stroke="black" stroke-width="1"></circle><text x="167" y="412" stroke-width="0" font-size="6">67</text><text x="185" y="406" stroke-width="0" font-style="italic">Rhododendron vanvuurenii</text><circle cx="175" cy="401" r="7" fill="white" stroke="black" stroke-width="1"></circle><text x="170" y="403" stroke-width="0" font-size="6">68</text><circle cx="174" cy="419" r="7" fill="white" stroke="black" stroke-width="1"></circle><text x="169" y="421" stroke-width="0" font-size="6">69</text><text x="185" y="418" stroke-width="0" font-style="italic">Rhododendron pudorinum</text><circle cx="175" cy="413" r="7" fill="white" stroke="black" stroke-width="1"></circle><text x="170" y="415" stroke-width="0" font-size="6">70</text><text x="185" y="430" stroke-width="0" font-style="italic">Rhododendron rhodopus</text><circle cx="175" cy="425" r="7" fill="white" stroke="black" stroke-width="1"></circle><text x="170" y="427" stroke-width="0" font-size="6">71</text><circle cx="98" cy="478" r="7" fill="white" stroke="black" stroke-width="1"></circle><text x="93" y="480" stroke-width="0" font-size="6">72</text><circle cx="135" cy="455" r="7" fill="white" stroke="black" stroke-width="1"></circle><text x="130" y="457" stroke-width="0" font-size="6">73</text><circle cx="155" cy="443" r="7" fill="white" stroke="black" stroke-width="1"></circle><text x="150" y="445" stroke-width="0" font-size="6">74</text><text x="185" y="442" stroke-width="0" font-style="italic">Rhododendron culminicola</text><circle cx="175" cy="437" r="7" fill="white" stroke="black" stroke-width="1"></circle><text x="170" y="439" stroke-width="0" font-size="6">75</text><text x="185" y="454" stroke-width="0" font-style="italic">Rhododendron tuba</text><circle cx="175" cy="449" r="7" fill="white" stroke="black" stroke-width="1"></circle><text x="170" y="451" stroke-width="0" font-size="6">76</text><circle cx="155" cy="467" r="7" fill="white" stroke="black" stroke-width="1"></circle><text x="150" y="469" stroke-width="0" font-size="6">77</text><text x="185" y="466" stroke-width="0" font-style="italic">Rhododendron lochiae</text><circle cx="175" cy="461" r="7" fill="white" stroke="black" stroke-width="1"></circle><text x="170" y="463" stroke-width="0" font-size="6">78</text><text x="185" y="478" stroke-width="0" font-style="italic">Rhododendron saxifragoides</text><circle cx="175" cy="473" r="7" fill="white" stroke="black" stroke-width="1"></circle><text x="170" y="475" stroke-width="0" font-size="6">79</text><circle cx="131" cy="501" r="7" fill="white" stroke="black" stroke-width="1"></circle><text x="126" y="503" stroke-width="0" font-size="6">80</text><text x="185" y="490" stroke-width="0" font-style="italic">Rhododendron superbum</text><circle cx="175" cy="485" r="7" fill="white" stroke="black" stroke-width="1"></circle><text x="170" y="487" stroke-width="0" font-size="6">81</text><circle cx="143" cy="518" r="7" fill="white" stroke="black" stroke-width="1"></circle><text x="138" y="520" stroke-width="0" font-size="6">82</text><text x="185" y="502" stroke-width="0" font-style="italic">Rhododendron solitarium</text><circle cx="175" cy="497" r="7" fill="white" stroke="black" stroke-width="1"></circle><text x="170" y="499" stroke-width="0" font-size="6">83</text><circle cx="152" cy="540" r="7" fill="white" stroke="black" stroke-width="1"></circle><text x="147" y="542" stroke-width="0" font-size="6">84</text><text x="185" y="514" stroke-width="0" font-style="italic">Rhododendron maius</text><circle cx="175" cy="509" r="7" fill="white" stroke="black" stroke-width="1"></circle><text x="170" y="511" stroke-width="0" font-size="6">85</text><circle cx="158" cy="572" r="7" fill="white" stroke="black" stroke-width="1"></circle><text x="153" y="574" stroke-width="0" font-size="6">86</text><circle cx="166" cy="539" r="7" fill="white" stroke="black" stroke-width="1"></circle><text x="161" y="541" stroke-width="0" font-size="6">87</text><circle cx="171" cy="527" r="7" fill="white" stroke="black" stroke-width="1"></circle><text x="166" y="529" stroke-width="0" font-size="6">88</text><text x="185" y="526" stroke-width="0" font-style="italic">Rhododendron inconspicuum</text><circle cx="175" cy="521" r="7" fill="white" stroke="black" stroke-width="1"></circle><text x="170" y="523" stroke-width="0" font-size="6">89</text><text x="185" y="538" stroke-width="0" font-style="italic">Rhododendron spondylophyllum</text><circle cx="175" cy="533" r="7" fill="white" stroke="black" stroke-width="1"></circle><text x="170" y="535" stroke-width="0" font-size="6">90</text><circle cx="171" cy="551" r="7" fill="white" stroke="black" stroke-width="1"></circle><text x="166" y="553" stroke-width="0" font-size="6">91</text><text x="185" y="550" stroke-width="0" font-style="italic">Rhododendron hyacinthosmum</text><circle cx="175" cy="545" r="7" fill="white" stroke="black" stroke-width="1"></circle><text x="170" y="547" stroke-width="0" font-size="6">92</text><text x="185" y="562" stroke-width="0" font-style="italic">Rhododendron multinervium</text><circle cx="175" cy="557" r="7" fill="white" stroke="black" stroke-width="1"></circle><text x="170" y="559" stroke-width="0" font-size="6">93</text><circle cx="162" cy="606" r="7" fill="white" stroke="black" stroke-width="1"></circle><text x="157" y="608" stroke-width="0" font-size="6">94</text><circle cx="169" cy="575" r="7" fill="white" stroke="black" stroke-width="1"></circle><text x="164" y="577" stroke-width="0" font-size="6">95</text><text x="185" y="574" stroke-width="0" font-style="italic">Rhododendron carringtoniae</text><circle cx="175" cy="569" r="7" fill="white" stroke="black" stroke-width="1"></circle><text x="170" y="571" stroke-width="0" font-size="6">96</text><text x="185" y="586" stroke-width="0" font-style="italic">Rhododendron leucogigas</text><circle cx="175" cy="581" r="7" fill="white" stroke="black" stroke-width="1"></circle><text x="170" y="583" stroke-width="0" font-size="6">97</text><circle cx="167" cy="638" r="7" fill="white" stroke="black" stroke-width="1"></circle><text x="162" y="640" stroke-width="0" font-size="6">98</text><circle cx="171" cy="604" r="7" fill="white" stroke="black" stroke-width="1"></circle><text x="166" y="606" stroke-width="0" font-size="6">99</text><text x="185" y="598" stroke-width="0" font-style="italic">Rhododendron zoelleri</text><circle cx="175" cy="593" r="7" fill="white" stroke="black" stroke-width="1"></circle><text x="170" y="595" stroke-width="0" font-size="6">100</text><circle cx="173" cy="615" r="7" fill="white" stroke="black" stroke-width="1"></circle><text x="168" y="617" stroke-width="0" font-size="6">101</text><text x="185" y="610" stroke-width="0" font-style="italic">Rhododendron laetum</text><circle cx="175" cy="605" r="7" fill="white" stroke="black" stroke-width="1"></circle><text x="170" y="607" stroke-width="0" font-size="6">102</text><circle cx="174" cy="626" r="7" fill="white" stroke="black" stroke-width="1"></circle><text x="169" y="628" stroke-width="0" font-size="6">103</text><text x="185" y="622" stroke-width="0" font-style="italic">Rhododendron konori</text><circle cx="175" cy="617" r="7" fill="white" stroke="black" stroke-width="1"></circle><text x="170" y="619" stroke-width="0" font-size="6">104</text><circle cx="175" cy="635" r="7" fill="white" stroke="black" stroke-width="1"></circle><text x="170" y="637" stroke-width="0" font-size="6">105</text><text x="185" y="634" stroke-width="0" font-style="italic">Rhododendron loranthiflorum</text><circle cx="175" cy="629" r="7" fill="white" stroke="black" stroke-width="1"></circle><text x="170" y="631" stroke-width="0" font-size="6">106</text><text x="185" y="646" stroke-width="0" font-style="italic">Rhododendron luraluense</text><circle cx="175" cy="641" r="7" fill="white" stroke="black" stroke-width="1"></circle><text x="170" y="643" stroke-width="0" font-size="6">107</text><circle cx="171" cy="673" r="7" fill="white" stroke="black" stroke-width="1"></circle><text x="166" y="675" stroke-width="0" font-size="6">108</text><text x="185" y="658" stroke-width="0" font-style="italic">Rhododendron goodenoughii</text><circle cx="175" cy="653" r="7" fill="white" stroke="black" stroke-width="1"></circle><text x="170" y="655" stroke-width="0" font-size="6">109</text><circle cx="173" cy="693" r="7" fill="white" stroke="black" stroke-width="1"></circle><text x="168" y="695" stroke-width="0" font-size="6">110</text><circle cx="174" cy="671" r="7" fill="white" stroke="black" stroke-width="1"></circle><text x="169" y="673" stroke-width="0" font-size="6">111</text><text x="185" y="670" stroke-width="0" font-style="italic">Rhododendron commonae</text><circle cx="175" cy="665" r="7" fill="white" stroke="black" stroke-width="1"></circle><text x="170" y="667" stroke-width="0" font-size="6">112</text><text x="185" y="682" stroke-width="0" font-style="italic">Rhododendron rubineiflorum</text><circle cx="175" cy="677" r="7" fill="white" stroke="black" stroke-width="1"></circle><text x="170" y="679" stroke-width="0" font-size="6">113</text><circle cx="174" cy="716" r="7" fill="white" stroke="black" stroke-width="1"></circle><text x="169" y="718" stroke-width="0" font-size="6">114</text><circle cx="175" cy="698" r="7" fill="white" stroke="black" stroke-width="1"></circle><text x="170" y="700" stroke-width="0" font-size="6">115</text><text x="185" y="694" stroke-width="0" font-style="italic">Rhododendron christii</text><circle cx="175" cy="689" r="7" fill="white" stroke="black" stroke-width="1"></circle><text x="170" y="691" stroke-width="0" font-size="6">116</text><circle cx="175" cy="707" r="7" fill="white" stroke="black" stroke-width="1"></circle><text x="170" y="709" stroke-width="0" font-size="6">117</text><text x="185" y="706" stroke-width="0" font-style="italic">Rhododendron gracilentum</text><circle cx="175" cy="701" r="7" fill="white" stroke="black" stroke-width="1"></circle><text x="170" y="703" stroke-width="0" font-size="6">118</text><text x="185" y="718" stroke-width="0" font-style="italic">Rhododendron leptanthum</text><circle cx="175" cy="713" r="7" fill="white" stroke="black" stroke-width="1"></circle><text x="170" y="715" stroke-width="0" font-size="6">119</text><circle cx="174" cy="735" r="7" fill="white" stroke="black" stroke-width="1"></circle><text x="169" y="737" stroke-width="0" font-size="6">120</text><text x="185" y="730" stroke-width="0" font-style="italic">Rhododendron baenitzianum</text><circle cx="175" cy="725" r="7" fill="white" stroke="black" stroke-width="1"></circle><text x="170" y="727" stroke-width="0" font-size="6">121</text><circle cx="175" cy="746" r="7" fill="white" stroke="black" stroke-width="1"></circle><text x="170" y="748" stroke-width="0" font-size="6">122</text><text x="185" y="742" stroke-width="0" font-style="italic">Rhododendron rarum</text><circle cx="175" cy="737" r="7" fill="white" stroke="black" stroke-width="1"></circle><text x="170" y="739" stroke-width="0" font-size="6">123</text><circle cx="175" cy="755" r="7" fill="white" stroke="black" stroke-width="1"></circle><text x="170" y="757" stroke-width="0" font-size="6">124</text><text x="185" y="754" stroke-width="0" font-style="italic">Rhododendron herzogii</text><circle cx="175" cy="749" r="7" fill="white" stroke="black" stroke-width="1"></circle><text x="170" y="751" stroke-width="0" font-size="6">125</text><text x="185" y="766" stroke-width="0" font-style="italic">Rhododendron inundatum</text><circle cx="175" cy="761" r="7" fill="white" stroke="black" stroke-width="1"></circle><text x="170" y="763" stroke-width="0" font-size="6">126</text></g></svg>